<?xml version="1.0" encoding="UTF-8"?>
<svg xmlns="http://www.w3.org/2000/svg" xmlns:xlink="http://www.w3.org/1999/xlink" width="200px" height="147px" viewBox="0 0 199 147" version="1.1">
<g id="surface1">
<path style="fill-rule:nonzero;fill:rgb(100%,100%,100%);fill-opacity:1;stroke-width:1;stroke-linecap:butt;stroke-linejoin:miter;stroke:rgb(100%,100%,100%);stroke-opacity:1;stroke-miterlimit:4;" d="M 4340.029209 5518.080357 L 3674.054962 3514.955357 L 2611.944724 3512.053571 C 1833.108668 3510.9375 1550.058417 3506.919643 1550.058417 3499.107143 C 1550.058417 3477.008929 2933.063442 749.107143 2940.005339 756.919643 C 2944.036118 760.9375 3139.976759 1341.964286 3375.105528 2047.991071 L 3801.920226 3329.910714 L 10009.99152 3329.910714 L 10009.99152 3510.044643 L 6936.074749 3512.053571 L 3861.934045 3514.955357 L 3904.92902 3645.089286 C 4713.100188 6072.098214 5169.921796 7450 5169.921796 7458.035714 C 5169.921796 7466.071429 5031.083857 7520.089286 5010.034234 7520.089286 C 5006.899183 7520.089286 4705.934359 6618.973214 4340.029209 5518.080357 Z M 3607.994975 3318.080357 C 3605.083857 3310.9375 3446.987751 2833.035714 3255.973618 2256.026786 C 3064.959485 1679.017857 2905.071922 1210.9375 2901.041143 1216.071429 C 2888.053078 1229.910714 1840.050565 3308.928571 1840.050565 3320.089286 C 1840.050565 3327.008929 2154.899183 3329.910714 2725.926193 3329.910714 C 3431.088568 3329.910714 3610.906093 3327.008929 3607.994975 3318.080357 Z M 3607.994975 3318.080357 " transform="matrix(0.0174439,0,0,-0.0175,0,147)"/>
<path style="fill-rule:nonzero;fill:rgb(100%,100%,100%);fill-opacity:1;stroke-width:1;stroke-linecap:butt;stroke-linejoin:miter;stroke:rgb(100%,100%,100%);stroke-opacity:1;stroke-miterlimit:4;" d="M 5130.061872 5104.910714 C 4900.083543 5052.901786 4724.968593 4920.982143 4619.94441 4718.080357 C 4563.065641 4610.044643 4540.000628 4510.9375 4540.000628 4379.910714 C 4540.000628 4043.973214 4741.091709 3772.991071 5064.897613 3670.089286 C 5171.041457 3637.053571 5330.033291 3631.919643 5442.895101 3658.928571 C 5873.068781 3762.053571 6116.930905 4202.901786 5974.957915 4620.982143 C 5897.029523 4850 5701.984611 5031.026786 5463.048995 5095.982143 C 5379.970163 5118.080357 5210.005653 5122.991071 5130.061872 5104.910714 Z M 5130.061872 5104.910714 " transform="matrix(0.0174439,0,0,-0.0175,0,147)"/>
<path style="fill-rule:nonzero;fill:rgb(100%,100%,100%);fill-opacity:1;stroke-width:1;stroke-linecap:butt;stroke-linejoin:miter;stroke:rgb(100%,100%,100%);stroke-opacity:1;stroke-miterlimit:4;" d="M 8356.924309 5112.946429 C 8352.89353 5110.044643 8349.982412 4777.008929 8349.982412 4372.991071 L 8349.982412 3639.955357 L 8880.029837 3639.955357 L 8880.029837 5120.089286 L 8622.059987 5120.089286 C 8480.086997 5120.089286 8360.059359 5116.964286 8356.924309 5112.946429 Z M 8356.924309 5112.946429 " transform="matrix(0.0174439,0,0,-0.0175,0,147)"/>
<path style="fill-rule:nonzero;fill:rgb(100%,100%,100%);fill-opacity:1;stroke-width:1;stroke-linecap:butt;stroke-linejoin:miter;stroke:rgb(100%,100%,100%);stroke-opacity:1;stroke-miterlimit:4;" d="M 7160.00691 4791.964286 C 6943.016646 4666.964286 6694.004083 4524.107143 6608.014133 4475 C 6520.904523 4425 6451.037688 4383.035714 6451.037688 4379.910714 C 6449.918028 4372.991071 7551.888191 3737.946429 7555.91897 3743.080357 C 7557.934359 3745.089286 7559.05402 4033.035714 7557.934359 4383.928571 L 7555.023241 5020.982143 Z M 7160.00691 4791.964286 " transform="matrix(0.0174439,0,0,-0.0175,0,147)"/>
</g>
</svg>
